<?xml version="1.0" encoding="utf-8"?>
<!-- Generator: Adobe Illustrator 22.0.1, SVG Export Plug-In . SVG Version: 6.00 Build 0)  -->
<svg version="1.1" xmlns="http://www.w3.org/2000/svg" xmlns:xlink="http://www.w3.org/1999/xlink" x="0px" y="0px"
	 viewBox="0 0 1626 480.2" style="enable-background:new 0 0 1626 480.2;" xml:space="preserve" width="1628" height="480">
<style type="text/css">
	.st0{fill:#F1F9F8;}
	.st1{fill:#E5F4EF;}
</style>
<g id="Layer_1">
</g>
<g id="Warstwa_2">
	<g>
		<path class="st0" d="M1024,424.2c38.1-12.6,79.5-41.8,127.7-71.7c-77.8-46.6-153.9-102.6-248.7-132.3
			c-147.7-46.3-230.7-40.1-404,22.3c6.6,7,13.3,14.3,20,21.7C779.5,553.7,938.9,452.2,1024,424.2z"/>
		<path class="st0" d="M290.3,323.6c83.4-33.3,151-60.3,208.7-81.1C219.5-54.1,1,7.8,1,7.8v328.4C1,336.2,110.3,395.6,290.3,323.6z"
			/>
		<path class="st0" d="M1151.7,352.5c124.9,74.8,254.4,125.6,473.3,5.7v-31.8C1404.4,214.5,1260.5,285,1151.7,352.5z"/>
		<path class="st1" d="M1151.7,352.5c-48.2,29.9-89.6,59.1-127.7,71.7c-85.1,28.1-244.5,129.6-505-160c-6.7-7.4-13.3-14.7-20-21.7
			c-57.7,20.8-125.3,47.8-208.7,81.1C110.3,395.6,1,336.2,1,336.2v144h1624v-122C1406.1,478.1,1276.6,427.3,1151.7,352.5z"/>
	</g>
</g>
</svg>
