<svg width="175" height="57" viewBox="0 0 175 57" fill="none" xmlns="http://www.w3.org/2000/svg">
    <path d="M174.471 23.9529L173.436 29.5278C173.303 30.3003 172.601 30.8712 171.833 30.8712H168.127C167.96 30.8712 167.826 30.9719 167.793 31.1399L165.355 44.7413C165.188 45.7824 165.288 46.5212 165.689 46.9242C166.357 47.6295 167.826 47.3608 168.794 47.3608C170.364 47.3608 170.731 48.234 170.531 49.3087L169.596 53.9432C169.429 54.8836 168.46 55.8239 167.525 56.0254C163.952 56.865 157.107 56.6299 155.036 55.2194C153.199 53.9768 151.997 52.0961 153.199 45.4801L155.704 31.1063C155.737 30.9719 155.604 30.8376 155.47 30.8376H153.901C152.865 30.8376 152.097 29.8973 152.298 28.8898L153.333 23.3149C153.467 22.5424 154.168 21.9715 154.936 21.9715H157.24C157.407 21.9715 157.541 21.8708 157.574 21.7028L158.943 15.3891C159.11 14.6503 159.845 14.1801 160.546 14.0793C162.349 13.8107 166.757 13.7771 168.861 14.0793C169.963 14.2472 170.664 15.0197 170.464 16.0272L169.462 21.6693C169.429 21.8036 169.562 21.9379 169.696 21.9379H172.835C173.87 22.0051 174.638 22.9454 174.471 23.9529ZM127.887 56.7307C133.397 56.7307 138.272 55.253 141.779 52.3312C145.285 49.3758 147.556 45.0099 148.591 39.1664C148.858 37.6551 148.958 36.2782 148.958 35.002C148.958 30.5689 147.556 27.1434 144.751 24.759C141.946 22.3745 138.339 21.1991 133.497 21.1991C127.987 21.1991 123.679 22.6768 120.139 25.5985C116.633 28.5203 114.362 32.9198 113.327 38.7634C113.06 40.2746 112.96 41.6516 112.96 42.9278C112.96 47.3608 114.362 50.7863 117.167 53.1708C119.972 55.5216 123.011 56.7307 127.887 56.7307ZM129.389 47.3608C126.885 47.3608 125.616 45.8495 125.616 42.827C125.616 41.7523 125.75 40.4761 126.05 38.9649C126.618 35.9759 127.419 33.8601 128.421 32.5504C129.456 31.2406 130.792 30.6025 132.529 30.6025C135.033 30.6025 136.302 32.1138 136.302 35.1363C136.302 36.211 136.168 37.4872 135.868 38.9985C135.3 41.9874 134.499 44.1032 133.497 45.413C132.462 46.6891 131.093 47.3608 129.389 47.3608ZM96.3294 35.4386C95.5279 37.4872 92.7896 43.4987 92.7896 43.4987H92.5225C92.5225 43.4987 91.9214 37.1178 91.721 35.4386C91.5207 33.7594 90.2183 23.382 90.2183 23.382C90.1181 22.576 89.6172 22.0387 88.582 21.9379C86.8455 21.77 82.5711 21.7364 80.2001 21.9379C79.2317 22.0387 78.4302 22.8447 78.5972 23.8522L84.2074 54.5813C84.3409 55.3537 84.9086 55.8575 85.8103 55.9247C88.8825 56.1933 93.3907 56.2269 96.4296 55.9247C97.0975 55.8575 97.6652 55.5552 97.9323 54.9507L114.295 24.2216C114.796 23.1469 114.062 22.0387 112.793 21.9043C110.355 21.6357 106.147 21.6357 103.709 21.9043C103.008 21.9715 102.44 22.3073 102.173 22.9454C102.173 23.0126 97.1308 33.39 96.3294 35.4386ZM58.3938 55.9582C60.2972 56.2269 65.2729 56.1933 67.4436 55.9582C68.3452 55.8575 68.9129 55.3873 69.0465 54.6149L74.7235 23.8858C74.9238 22.8783 74.2225 22.0051 73.1205 21.9379C70.9165 21.8036 66.3416 21.8036 64.0708 21.9379C63.2693 22.0051 62.6014 22.5088 62.4678 23.2813L56.7909 54.0104C56.5905 55.0515 57.058 55.7903 58.3938 55.9582ZM69.7144 18.5124C67.8109 18.5124 66.0744 17.7735 64.772 16.4302C63.4697 15.0868 62.8018 13.3069 62.8686 11.3926C63.0022 7.49692 66.2748 4.30647 70.1485 4.30647C72.0519 4.30647 73.7884 5.04531 75.0908 6.38866C76.3932 7.73201 77.061 9.51194 76.9942 11.4262C76.8607 15.3555 73.5881 18.5124 69.7144 18.5124ZM29.4078 0.175668C15.2487 1.28393 5.79819 11.2247 3.22686 15.2212C-0.0123648 20.2252 -0.64685 23.8522 0.622123 28.4532C1.22322 30.6025 3.76116 32.8862 7.10056 32.8862C10.9743 32.8862 14.2469 29.6958 14.3805 25.8001C14.4139 24.4903 14.1133 23.2141 13.4788 22.1058C12.2098 19.4191 9.80548 20.0572 13.1449 16.5309C15.7496 13.8107 19.7235 10.5195 28.5061 10.0829C40.3944 9.47836 43.2997 19.2848 42.5984 24.4567C41.5632 32.1138 37.2888 35.4722 33.1479 35.1363C31.5116 35.002 30.6433 34.4647 30.9773 32.9534L33.2147 22.6768C34.0829 18.2773 32.8807 16.5981 29.7751 16.0272C28.5395 15.8257 25.0331 15.8593 23.1965 15.9936C21.5936 16.0944 20.7253 16.8332 20.3914 18.2773C19.7235 20.9304 13.5456 47.6295 12.0763 53.7753C11.6755 55.3873 12.0763 55.7567 13.8128 55.8575C17.2523 56.0926 21.4934 56.1262 24.0981 55.9582C24.933 55.8911 25.7678 55.656 25.9682 54.6821C26.8364 50.8199 27.8716 46.3197 28.9069 41.8867C28.9736 41.5844 29.3076 41.4165 29.5747 41.5508C36.1868 44.6741 53.7854 44.0696 57.058 26.3374C59.7963 11.8964 52.3829 -1.60427 29.4078 0.175668Z" fill="#DB0032"/>
</svg>