<?xml version="1.0" encoding="UTF-8"?>
<!DOCTYPE svg PUBLIC "-//W3C//DTD SVG 1.1//EN" "http://www.w3.org/Graphics/SVG/1.1/DTD/svg11.dtd">
<!-- Creator: CorelDRAW X7 -->
<svg xmlns="http://www.w3.org/2000/svg" xml:space="preserve" width="400mm" height="90mm" version="1.1" style="shape-rendering:geometricPrecision; text-rendering:geometricPrecision; image-rendering:optimizeQuality; fill-rule:evenodd; clip-rule:evenodd"
viewBox="0 0 40000 9000"
 xmlns:xlink="http://www.w3.org/1999/xlink">
 <defs>
  <style type="text/css">
   <![CDATA[
    .fil1 {fill:#0C4C3E}
    .fil0 {fill:#279C83}
   ]]>
  </style>
 </defs>
 <g id="Warstwa_x0020_1">
  <metadata id="CorelCorpID_0Corel-Layer"/>
  <g id="_609933328">
   <path class="fil0" d="M5207 6159c43,-79 85,-157 129,-237 40,3 46,12 90,12 107,0 216,-87 219,-187l1235 0c13,56 49,115 94,145 60,39 106,42 201,42 8,33 106,208 129,250 -144,93 -140,399 180,399 169,342 0,180 0,400 0,194 199,217 206,224 11,23 26,90 26,125 0,71 -63,162 -78,225 -78,-18 -230,-72 -319,76 -53,87 -37,131 -15,223 -89,2 -190,49 -360,-62 0,-204 -93,-262 -296,-262 -11,-44 -95,-154 112,-203 127,-30 227,17 372,-89 181,-133 73,-317 -63,-428 -204,-167 -424,-178 -624,-2 -70,62 -162,162 -183,247l-26 0c-36,-152 -336,-492 -664,-333 -186,91 -444,341 -205,516 182,134 509,32 509,192 0,192 -190,18 -274,233 -38,96 8,111 -95,157 -62,29 -267,77 -277,24l16 -102c0,-132 -108,-212 -257,-212 -52,0 -64,25 -116,37 -212,-388 10,-373 48,-390 66,-31 123,-108 129,-186 5,-70 -38,-178 -113,-198 18,-73 72,-164 77,-224 131,61 296,-67 296,-175 0,-194 -29,-130 -103,-237zm2290 -1011l-2328 0c-226,0 -399,-88 -399,-324l0 -1610c0,-29 9,-37 39,-37l3022 0 0 1622c0,206 -123,349 -334,349zm927 -2745c-18,61 -3,148 -16,221l-4224 -3 -8 -68 -260 -357c-275,-353 -647,-659 -1099,-806 -441,-143 -1174,-133 -1523,223 -358,364 -276,966 270,1180 243,96 524,86 737,-78 166,-127 298,-573 0,-588 -306,-14 -306,260 -342,294 -82,81 -254,-23 -324,-84 -192,-168 32,-364 177,-458 36,131 269,165 370,60 46,-48 40,-68 67,-123 99,8 195,62 263,108 250,168 101,214 246,310 182,122 52,-80 296,274 21,30 62,81 65,108 10,97 -46,190 81,274 26,17 25,15 61,28 62,23 29,-11 58,44 89,165 160,369 203,551 -176,-39 -327,-94 -499,-139 -718,-191 -2056,-451 -2476,347 -136,258 -176,761 -55,1073 27,70 65,153 105,210 435,612 1549,272 1660,-235 74,-341 -437,-739 -608,-403 -16,31 -34,81 -41,111 -13,49 -2,63 -2,134 3,303 -102,297 -309,163 30,-40 27,-13 59,-55 67,-86 66,-192 8,-272 -98,-135 -229,-114 -350,-35 -37,-155 22,-236 77,-337 37,24 181,190 345,59 169,-136 62,-260 41,-334 407,0 322,42 396,140 34,44 107,86 183,86 82,0 163,-38 180,-101l369 104c71,26 50,29 68,96 35,125 179,190 299,152 171,-53 1,-132 379,52 49,23 234,104 249,158 -193,43 -621,288 -800,397 -253,154 -470,329 -657,548 -206,243 -290,580 -185,885 186,538 811,1043 1459,613 339,-224 752,-886 203,-1065 -258,-84 -602,0 -497,294 49,136 237,259 228,373 -6,82 -114,112 -189,114 -5,-242 -384,-256 -437,-63 -135,-69 -228,-187 -232,-349 147,-33 232,-184 172,-317 -27,-60 -55,-59 -69,-107 184,-266 265,52 467,-147 45,-44 61,-94 61,-178 58,-27 111,-46 167,-75 50,73 123,132 225,119 137,-18 214,-116 209,-243 -2,-65 -36,-31 162,-96 76,-24 214,-73 291,-79 0,228 24,411 201,529 56,38 99,66 172,82 -127,257 -266,751 -316,1016 -109,588 -57,1174 488,1438 144,70 352,131 549,142 319,18 581,5 823,-175 63,-46 108,-136 167,-175 16,65 101,138 151,178 399,317 1279,176 1557,-93 202,-195 287,-372 332,-676 25,-169 -5,-487 -32,-620 -64,-313 -149,-601 -264,-892 -17,-43 -42,-85 -46,-130 146,0 274,-98 344,-178 102,-118 106,-213 106,-421 38,1 402,105 460,140 41,25 20,2 35,54 25,88 55,157 154,187 54,17 86,17 135,6 67,-16 70,-33 117,-63 34,8 140,58 167,75 42,26 42,66 73,104 2,3 85,102 205,90 74,-8 92,-4 146,81 44,68 53,89 42,178 -5,37 0,62 12,94 37,104 92,102 22,288 -8,21 -27,62 -42,83 -23,31 -38,37 -60,68 -81,-53 -148,-103 -259,-65 -72,25 -145,105 -152,190 -181,0 -423,-25 -265,-245 42,-57 110,-111 141,-163 297,-498 -625,-534 -714,-118 -80,374 315,755 593,888 421,200 792,33 1071,-272 48,-52 87,-116 128,-175 45,-65 73,-118 106,-197 60,-145 91,-336 49,-508 -37,-155 -108,-276 -201,-403l-118 -136c-1,-2 -4,-5 -6,-7l-17 -20c-160,-183 -589,-443 -810,-562 -39,-21 -59,-35 -99,-54 -134,-65 -277,-154 -424,-187 13,-48 10,-29 58,-56l572 -269c80,148 295,171 400,26 37,-52 37,-85 37,-175 92,-43 287,-87 399,-113 138,199 432,146 438,-87 66,0 89,-15 167,-13 89,2 90,23 154,38 -10,117 -59,163 42,271 92,99 198,62 293,41 18,78 38,95 38,200 -79,0 -91,-2 -142,24 -212,107 -104,288 -89,350 -60,39 -115,103 -191,127 -262,84 -153,-288 -187,-397 -107,-345 -389,-214 -559,-14 -528,620 1216,1426 1661,400 162,-375 117,-966 -144,-1279 -42,-50 -116,-117 -172,-157 -372,-257 -912,-249 -1364,-194 -283,35 -553,86 -825,161 -92,25 -164,43 -250,69 -42,13 -85,23 -129,38 -37,12 -84,32 -130,35 45,-91 89,-338 232,-599 166,78 362,-83 314,-254 -21,-76 -49,-84 -83,-132 15,-56 152,-216 193,-275 197,101 413,-108 309,-299 165,-85 212,-150 437,-150 40,80 51,143 145,184 124,53 194,-10 267,-47 38,56 94,101 128,163 44,79 13,154 -36,214 -45,55 -111,89 -190,115 -244,81 -120,-153 -309,-259 -305,-172 -438,119 -301,391 224,446 953,330 1202,-20 303,-425 80,-948 -399,-1133 -82,-32 -148,-49 -236,-70 -85,-20 -179,-18 -276,-32 -159,-23 -412,16 -560,46 -88,17 -161,43 -234,72 -40,15 -71,25 -109,44l-101 52c-158,90 -317,187 -448,314 -29,28 -48,47 -77,75l-288 319c-49,58 -85,115 -132,171z"/>
   <path class="fil1" d="M4176 2553l8 68 4224 3c13,-73 -2,-160 16,-221 -8,-276 24,-642 -11,-889 -36,-243 -220,-413 -479,-434 0,379 21,599 -183,796 -217,210 -499,232 -752,99 -116,-62 -181,-149 -241,-253 -133,-232 0,-609 -86,-640l-770 -2c0,267 35,504 -92,697 -255,383 -823,361 -1048,-3 -123,-201 -95,-391 -95,-694 -71,2 -147,27 -195,48 -167,74 -294,238 -294,451 0,305 20,677 -2,974z"/>
   <path class="fil1" d="M5002 868l0 624c0,320 604,360 604,-38l0 -561c0,-267 -355,-328 -513,-198 -30,25 -9,3 -32,31 -15,17 -14,17 -27,36 -22,35 -32,55 -32,106z"/>
   <path class="fil1" d="M7021 918l0 536c0,401 605,355 605,38l0 -612c0,-319 -605,-363 -605,38z"/>
  </g>
  <g id="_609938096">
   <path class="fil1" d="M27054 3789c0,-481 -542,-480 -901,-480 -163,0 -119,161 -137,296 -18,131 -23,287 -23,424 -430,35 -384,644 -70,669l-58 887c-12,87 -4,210 -18,309 -52,367 35,776 500,776 675,0 451,109 561,-708 20,-146 8,-253 25,-404 13,-116 30,-277 45,-385 55,-407 194,-1092 624,-1092 438,0 307,552 284,841 -11,145 -25,279 -36,411 -190,15 -425,392 -53,634 0,211 -16,379 73,512 160,242 564,191 864,191 112,0 78,-208 95,-318 37,-239 54,-914 96,-1194 68,-455 183,-1077 675,-1077 449,0 238,768 230,1080 -5,180 -3,149 -115,232 -118,89 -115,189 -115,317 0,127 127,192 150,248 47,115 -66,432 182,613 188,136 502,99 764,99 107,0 106,-302 106,-377l64 -778c28,-130 6,-36 118,-126 217,-177 97,-514 -58,-554 0,-58 16,-440 27,-471 37,-104 50,-21 133,-128 118,-152 98,-421 -113,-528 -29,-14 -45,-17 -73,-31 -97,-48 -38,-57 -164,-184 -297,-301 -1074,-318 -1422,-50 -240,185 -284,367 -351,415 -27,-113 -46,-177 -106,-258 -60,-82 -90,-122 -183,-182 -333,-214 -949,-222 -1281,-3 -72,47 -129,101 -183,165 -65,80 -119,183 -156,209z"/>
   <path class="fil1" d="M12982 4629c0,422 -17,707 149,1108 82,198 199,389 342,526 360,346 763,476 1313,476 532,0 1179,-229 1337,-658 70,-190 308,-1094 -247,-685 -143,106 -465,348 -648,348 -42,0 -89,-84 -141,-121 -174,-121 -404,-72 -514,87 -270,-139 -375,-372 -406,-738 296,-66 366,-394 191,-579 -81,-85 -73,-60 -173,-107 19,-40 26,-126 39,-184 82,-375 297,-879 774,-879 229,0 395,51 406,360 5,116 19,190 18,326 -3,255 27,223 336,223 213,0 460,-95 579,-193 56,-47 126,-150 156,-225 164,-404 -4,-908 -349,-1158 -403,-293 -1127,-339 -1631,-215 -409,101 -742,316 -1000,642 -320,403 -531,1101 -531,1646z"/>
   <path class="fil1" d="M23519 5916c-525,0 -469,-686 548,-686 -7,290 -229,686 -548,686zm-1097 -1733c0,352 287,481 655,481 265,0 165,-118 270,-338 92,-190 193,-245 437,-245 463,0 339,487 336,634l-283 17c-238,12 -576,82 -790,143 -326,95 -576,248 -759,482 -284,363 -372,1382 771,1382 361,0 690,-158 891,-404 42,-52 64,-50 81,-111 117,84 22,515 707,515 464,0 725,-342 725,-806 0,-57 -48,-60 -101,-73 -368,-94 -252,-301 -252,-630 181,-4 335,-178 335,-361 0,-130 -123,-298 -247,-308 0,-526 -21,-853 -427,-1112 -298,-190 -677,-192 -1023,-192 -592,0 -1326,286 -1326,926z"/>
   <path class="fil1" d="M18074 5916c-272,0 -301,-118 -301,-292 0,-301 580,-394 849,-394 0,327 -229,686 -548,686zm-1079 -1767c0,387 221,515 672,515 110,0 154,-34 178,-119 23,-84 35,-149 69,-225 85,-185 202,-239 425,-239 404,0 353,335 353,634l-720 73c-666,132 -1295,399 -1295,1162 0,898 1111,913 1549,628 81,-53 139,-95 206,-161 35,-34 64,-58 97,-94 36,-38 51,-72 93,-99 23,269 258,515 618,515 523,0 796,-318 796,-823 -212,-138 -371,-20 -371,-412 0,-135 17,-195 17,-326 479,-108 377,-617 71,-686 31,-201 28,-158 -5,-390 -82,-578 -574,-845 -1197,-845 -533,0 -1105,56 -1414,480 -75,102 -142,238 -142,412z"/>
   <path class="fil1" d="M32693 5916c-443,0 -462,-686 584,-686 -51,213 -24,249 -166,456 -84,124 -216,230 -418,230zm-1060 -1784c0,188 17,326 204,436 80,48 582,213 649,-20 23,-81 32,-144 68,-226 144,-330 614,-289 723,-104 84,141 53,325 53,497l-735 76c-220,38 -449,103 -621,187 -357,173 -659,453 -659,955 0,935 1131,918 1552,649 110,-70 207,-167 300,-259 38,-38 57,-73 92,-99 46,541 814,691 1207,297 115,-115 207,-351 207,-571 0,-138 -371,-39 -371,-360l18 -360c413,-94 353,-596 70,-669l18 -275c0,-667 -505,-1029 -1220,-1029 -472,0 -935,35 -1269,330 -12,11 -27,23 -37,32 -3,3 -6,6 -9,9l-89 102c-75,95 -151,245 -151,402z"/>
   <path class="fil1" d="M36264 3755c-38,-452 -529,-446 -866,-446 -164,0 -146,132 -164,269 -15,113 -30,283 -30,417 -56,28 -140,71 -180,117 -44,50 -85,154 -85,243 0,166 108,241 212,309l-26 301c-35,231 -42,660 -64,915 -18,218 -36,391 59,562 157,280 531,228 844,228 121,0 106,-190 106,-240 -1,-116 18,-205 18,-343 130,-67 247,-136 247,-343 0,-69 -26,-128 -53,-171 -37,-60 -64,-82 -124,-120 0,-329 19,-1338 478,-1338 224,0 159,400 159,617 58,13 52,22 121,37 500,110 886,-310 886,-740l0 -120c0,-341 -293,-652 -636,-652 -661,0 -808,431 -902,498z"/>
   <path class="fil1" d="M20407 5796c0,344 11,756 395,886 502,169 1072,-17 1072,-681 0,-112 -371,-27 -371,-343l0 -274c0,-114 18,-148 18,-257 330,-7 401,-573 53,-652 0,-200 71,-657 71,-875 143,-11 282,-153 282,-360 0,-247 -229,-268 -229,-343 0,-163 46,-364 -86,-535 -189,-246 -556,-202 -869,-202 -82,0 -67,92 -72,170 -6,77 -15,123 -16,225l-35 463c-34,412 -39,1004 -94,1401l-119 1377z"/>
   <path class="fil1" d="M37944 5744c0,183 91,216 115,283 29,83 -1,236 41,355 122,344 569,288 887,288 95,0 94,-158 103,-242l74 -993c295,-76 233,-536 53,-583 0,-139 16,-350 35,-480 21,-144 177,-98 177,-377 0,-196 -118,-183 -166,-302 -58,-145 -79,-280 -332,-347 -71,-19 -602,-85 -660,6 -24,39 -167,1975 -168,1998 0,27 3,56 -4,82 -13,54 -14,35 -41,63 -62,66 -114,132 -114,249z"/>
   <path class="fil1" d="M38262 2520c0,271 35,480 513,480 334,0 671,-171 671,-480l0 -103c0,-522 -1184,-433 -1184,103z"/>
  </g>
 </g>
</svg>
